<svg width="12" height="13" xmlns="http://www.w3.org/2000/svg">

 <g>
  <title>background</title>
  <rect fill="none" id="canvas_background" height="15" width="14" y="-1" x="-1"/>
 </g>
 <g>
  <title>Layer 1</title>
  <path fill="#cccccc" stroke="null" stroke-width="0" id="svg_1" d="m11.92684,10.773377q0,1.0018 -0.613375,1.582009t-1.630065,0.580209l-7.343694,0q-1.01669,0 -1.630065,-0.580209t-0.613375,-1.582009q0,-0.442462 0.029408,-0.864052t0.117634,-0.909968t0.222664,-0.905794t0.361303,-0.813962t0.520949,-0.676215t0.718405,-0.446636t0.936867,-0.166967q0.075622,0 0.352901,0.179489t0.625979,0.40072t0.907459,0.40072t1.12172,0.179489t1.12172,-0.179489t0.907459,-0.40072t0.625979,-0.40072t0.352901,-0.179489q0.512546,0 0.936867,0.166967t0.718405,0.446636t0.520949,0.676215t0.361303,0.813962t0.222664,0.905794t0.117634,0.909968t0.029408,0.864052zm-2.688767,-7.455061q0,1.327385 -0.94527,2.266572t-2.281251,0.939187t-2.281251,-0.939187t-0.94527,-2.266572t0.94527,-2.266572t2.281251,-0.939187t2.281251,0.939187t0.94527,2.266572z"/>
 </g>
</svg>