<svg width="12" height="13" xmlns="http://www.w3.org/2000/svg">

 <g>
  <title>background</title>
  <rect fill="none" id="canvas_background" height="15" width="14" y="-1" x="-1"/>
 </g>
 <g>
  <title>Layer 1</title>
  <path fill="#cccccc" stroke="null" stroke-width="0" id="svg_1" d="m9.937469,8.458901c-0.58436,0 -1.109965,0.267733 -1.483149,0.695035l-4.360453,-2.324994c0.014996,-0.109235 0.025321,-0.219809 0.025321,-0.333595c0,-0.110841 -0.009834,-0.219006 -0.024092,-0.325296l4.354061,-2.299559c0.37343,0.430782 0.901493,0.701193 1.488311,0.701193c1.131353,0 2.048579,-0.998912 2.048579,-2.231019c0,-1.232375 -0.917227,-2.231019 -2.048579,-2.231019s-2.048579,0.998644 -2.048579,2.231019c0,0.110841 0.009834,0.218738 0.024092,0.325296l-4.354061,2.299559c-0.37343,-0.430782 -0.901247,-0.701193 -1.488311,-0.701193c-1.131599,0 -2.048579,0.998912 -2.048579,2.231019c0,1.232375 0.916981,2.231019 2.048579,2.231019c0.58436,0 1.109965,-0.267733 1.483149,-0.695035l4.360453,2.324994c-0.014996,0.108967 -0.025321,0.219809 -0.025321,0.333595c0,1.232375 0.917227,2.231019 2.048579,2.231019s2.048579,-0.998644 2.048579,-2.231019c0,-1.232375 -0.917227,-2.231019 -2.048579,-2.231019z"/>
 </g>
</svg>